<svg width="121" height="113" viewBox="0 0 121 113" fill="none" xmlns="http://www.w3.org/2000/svg">
<path fill-rule="evenodd" clip-rule="evenodd" d="M21.0184 99.1229L16.9483 99.6949C14.7606 100.002 12.7379 98.4782 12.4305 96.2905L1.29664 17.0691C0.989189 14.8815 2.51338 12.8588 4.70102 12.5513L82.9322 1.55666C85.1198 1.24921 87.1425 2.7734 87.45 4.96104C87.45 4.96104 88.1619 10.0264 88.4067 11.7688" fill="#FAFAFA"/>
<path fill-rule="evenodd" clip-rule="evenodd" d="M23.5451 94.7124L19.8492 95.2377C17.8627 95.52 16.0286 94.1388 15.7526 92.1527L5.75747 20.2279C5.48146 18.2417 6.86807 16.4028 8.85455 16.1204L79.8921 6.02368C81.8785 5.74133 83.7126 7.12254 83.9886 9.10869L84.8476 15.2894C84.894 15.6239 87.9626 37.8233 94.0532 81.8878C94.359 84.1004 92.8333 86.1449 90.6455 86.4542C90.622 86.4575 90.5984 86.4606 90.5749 86.4635L23.5451 94.7124Z" fill="#E8F0FE"/>
<path d="M21.0184 99.1229L16.9483 99.6949C14.7606 100.002 12.7379 98.4782 12.4305 96.2905L1.29664 17.0691C0.989189 14.8815 2.51338 12.8588 4.70102 12.5513L82.9322 1.55666C85.1198 1.24921 87.1425 2.7734 87.45 4.96104C87.45 4.96104 88.1619 10.0264 88.4067 11.7688" stroke="#525FFD" stroke-width="2.5" stroke-linecap="round"/>
<path d="M89.2399 16.3796L89.7399 19.5" stroke="#525FFD" stroke-width="2.5" stroke-linecap="round"/>
<path d="M34.5617 20.4884C34.7204 18.9779 36.0736 17.8821 37.5841 18.0409L116.151 26.2987C117.662 26.4574 118.758 27.8106 118.599 29.321L110.236 108.883C110.078 110.393 108.725 111.489 107.214 111.33L28.6469 103.073C27.1364 102.914 26.0406 101.561 26.1994 100.05L34.5617 20.4884Z" fill="#FAFAFA" stroke="#525FFD" stroke-width="2.5"/>
<path fill-rule="evenodd" clip-rule="evenodd" d="M41.433 29.2546C41.6062 27.6068 43.0824 26.4114 44.7301 26.5846L107.385 33.1699C109.033 33.3431 110.228 34.8192 110.055 36.467L104.515 89.1767C104.342 90.8245 102.866 92.0199 101.218 91.8467L38.563 85.2614C36.9152 85.0882 35.7198 83.612 35.893 81.9642L41.433 29.2546Z" fill="#FAFAFA"/>
<path fill-rule="evenodd" clip-rule="evenodd" d="M44.4808 69.8777L54.2782 63.2697C55.9119 62.1679 58.1046 62.4199 59.4457 63.8636L66.6193 71.5866C66.9773 71.9721 67.5728 72.0142 67.9815 71.683L83.3214 59.2534C85.1692 57.7561 87.9074 58.1922 89.1987 60.1894L99.1795 75.6268L100.613 78.0187L99.9265 86.1434C99.8791 86.704 99.3788 87.1153 98.8196 87.0531L41.8569 80.7243C41.3153 80.6642 40.9216 80.1814 40.9715 79.6388L41.7265 71.4401L44.4808 69.8777Z" fill="#E8F0FE"/>
<path d="M42.6761 29.3852C42.7772 28.424 43.6383 27.7267 44.5995 27.8277L107.254 34.413C108.216 34.5141 108.913 35.3752 108.812 36.3364L103.272 89.046C103.171 90.0072 102.31 90.7045 101.349 90.6035L38.6936 84.0182C37.7324 83.9172 37.0351 83.0561 37.1361 82.0949L42.6761 29.3852Z" stroke="#525FFD" stroke-width="2.5"/>
<circle cx="56.772" cy="45.9495" r="6" transform="rotate(6 56.772 45.9495)" fill="#F3F7FF" stroke="#525FFD" stroke-width="2.5"/>
<path d="M42.4691 71.4249C46.4055 68.7065 54.2783 63.2698 54.2783 63.2698C55.9119 62.168 58.1046 62.42 59.4457 63.8637L66.6193 71.5867C66.9773 71.9722 67.5728 72.0143 67.9815 71.6831L83.3214 59.2535C85.0378 57.8627 87.5566 58.1267 88.9474 59.8431C89.0373 59.954 89.1212 60.0696 89.1987 60.1895C89.1987 60.1895 98.1671 74.4203 100.263 77.7455" stroke="#525FFD" stroke-width="2.5" stroke-linecap="round"/>
</svg>
