<svg width="89" height="88" viewBox="0 0 89 88" fill="none" xmlns="http://www.w3.org/2000/svg">
<path d="M35.3054 69C53.8069 69 68.8054 54.0015 68.8054 35.5C68.8054 16.9985 53.8069 2 35.3054 2C16.8038 2 1.80537 16.9985 1.80537 35.5C1.80537 54.0015 16.8038 69 35.3054 69Z" fill="#FAFAFA" stroke="#525FFD" stroke-width="2.5"/>
<path fill-rule="evenodd" clip-rule="evenodd" d="M29.9375 61.4939C31.6962 61.8185 33.4855 61.9872 35.3054 62C49.9409 62 61.8054 50.1355 61.8054 35.5C61.8054 20.8645 49.9409 9 35.3054 9C31.5457 9 27.969 9.78293 24.7292 11.1946C19.0992 13.6479 14.487 17.9999 11.7014 23.4419C9.84988 27.0589 8.80537 31.1575 8.80537 35.5C8.80537 39.44 9.66523 43.1792 11.2075 46.5401C12.3086 48.9396 13.7575 51.1463 15.4897 53.0956" fill="#FAFAFA"/>
<path d="M29.9375 61.4939C31.6962 61.8185 33.4855 61.9872 35.3054 62C49.9409 62 61.8054 50.1355 61.8054 35.5C61.8054 20.8645 49.9409 9 35.3054 9C31.5457 9 27.969 9.78293 24.7292 11.1946C19.0992 13.6479 14.487 17.9999 11.7014 23.4419C9.84988 27.0589 8.80537 31.1575 8.80537 35.5C8.80537 39.44 9.66523 43.1792 11.2075 46.5401C12.3086 48.9396 13.7575 51.1463 15.4897 53.0956" stroke="#525FFD" stroke-width="2.5" stroke-linecap="round"/>
<path d="M18.6028 56.0747C20.7509 57.8207 23.1778 59.237 25.8062 60.2466" stroke="#525FFD" stroke-width="2.5" stroke-linecap="round"/>
<path d="M62.8054 62L68.8054 68" stroke="#525FFD" stroke-width="2.5"/>
<path fill-rule="evenodd" clip-rule="evenodd" d="M67.8357 67.0304C65.943 68.9231 65.943 71.9918 67.8357 73.8845L78.921 84.9698C80.8137 86.8625 83.8824 86.8625 85.7751 84.9698C87.6678 83.0771 87.6678 80.0084 85.7751 78.1157L74.6898 67.0304C72.7971 65.1377 69.7284 65.1377 67.8357 67.0304Z" fill="#FAFAFA" stroke="#525FFD" stroke-width="2.5"/>
<path d="M72.8054 69L83.8054 80" stroke="#FAFAFA" stroke-width="2.5" stroke-linecap="round"/>
<path fill-rule="evenodd" clip-rule="evenodd" d="M28.8054 24C28.8054 35.598 38.2074 45 49.8054 45C52.0838 45 54.2774 44.6372 56.3316 43.9662C52.9786 52.2871 44.8279 58.1607 35.3054 58.1607C22.7903 58.1607 12.6447 48.0152 12.6447 35.5C12.6447 24.1596 20.9751 14.7648 31.8504 13.1011C29.9184 16.2793 28.8054 20.0097 28.8054 24Z" fill="#FAFAFA"/>
<path d="M35.8054 17C34.532 17 33.2879 17.1253 32.0846 17.3642M28.4501 18.4761C21.6092 21.3508 16.8054 28.1144 16.8054 36" stroke="#FAFAFA" stroke-width="2.5" stroke-linecap="round"/>
</svg>
